<svg width="25" height="26" viewBox="0 0 25 26" fill="none" xmlns="http://www.w3.org/2000/svg">
<g filter="url(#filter0_d_223_3240)">
<path d="M13.1501 7.51001C13.1501 7.15102 12.8591 6.86 12.5001 6.86C12.1411 6.86 11.8501 7.15102 11.8501 7.51001H13.1501ZM12.0405 17.0696C12.2943 17.3235 12.7059 17.3235 12.9598 17.0696L17.0964 12.933C17.3503 12.6791 17.3503 12.2676 17.0964 12.0137C16.8426 11.7599 16.431 11.7599 16.1772 12.0137L12.5001 15.6908L8.82309 12.0137C8.56925 11.7599 8.15768 11.7599 7.90383 12.0137C7.64999 12.2676 7.64999 12.6791 7.90383 12.933L12.0405 17.0696ZM11.8501 7.51001V16.61H13.1501V7.51001H11.8501Z" fill="#111011"/>
</g>
<defs>
<filter id="filter0_d_223_3240" x="0.451222" y="0.49446" width="24.0978" height="24.9243" filterUnits="userSpaceOnUse" color-interpolation-filters="sRGB">
<feFlood flood-opacity="0" result="BackgroundImageFix"/>
<feColorMatrix in="SourceAlpha" type="matrix" values="0 0 0 0 0 0 0 0 0 0 0 0 0 0 0 0 0 0 127 0" result="hardAlpha"/>
<feOffset dy="0.89657"/>
<feGaussianBlur stdDeviation="3.63111"/>
<feComposite in2="hardAlpha" operator="out"/>
<feColorMatrix type="matrix" values="0 0 0 0 0 0 0 0 0 0 0 0 0 0 0 0 0 0 0.25 0"/>
<feBlend mode="normal" in2="BackgroundImageFix" result="effect1_dropShadow_223_3240"/>
<feBlend mode="normal" in="SourceGraphic" in2="effect1_dropShadow_223_3240" result="shape"/>
</filter>
</defs>
</svg>
