<svg width="20" height="20" viewBox="0 0 20 20" fill="none" xmlns="http://www.w3.org/2000/svg">
<path fill-rule="evenodd" clip-rule="evenodd" d="M10 0C9.07953 0 8.33333 0.746193 8.33333 1.66667V8.33328H1.66667C0.746193 8.33328 4.0236e-08 9.07947 0 9.99995C-4.0236e-08 10.9204 0.746192 11.6666 1.66667 11.6666H8.33333V18.3333C8.33333 19.2538 9.07953 20 10 20C10.9205 20 11.6667 19.2538 11.6667 18.3333V11.6666H18.3333C19.2538 11.6666 20 10.9204 20 9.99995C20 9.07947 19.2538 8.33328 18.3333 8.33328H11.6667V1.66667C11.6667 0.746192 10.9205 0 10 0Z" fill="#6EE079"/>
</svg>
