<svg width="19" height="19" viewBox="0 0 19 19" fill="none" xmlns="http://www.w3.org/2000/svg">
<path fill-rule="evenodd" clip-rule="evenodd" d="M0.726852 0.726786C-0.242196 1.69583 -0.242196 3.26697 0.726852 4.23602L5.99071 9.49987L0.726786 14.7638C-0.242262 15.7328 -0.242262 17.304 0.726786 18.273C1.69583 19.2421 3.26697 19.2421 4.23602 18.273L9.49994 13.0091L14.7638 18.273C15.7328 19.242 17.304 19.242 18.273 18.273C19.2421 17.3039 19.2421 15.7328 18.273 14.7637L13.0092 9.49987L18.2729 4.2361C19.242 3.26705 19.242 1.69591 18.2729 0.726862C17.3039 -0.242186 15.7328 -0.242186 14.7637 0.726862L9.49994 5.99064L4.23609 0.726786C3.26704 -0.242262 1.6959 -0.242262 0.726852 0.726786Z" fill="#ECECEC"/>
</svg>
