<svg width="33" height="33" viewBox="0 0 33 33" fill="none" xmlns="http://www.w3.org/2000/svg">
<circle cx="16.4062" cy="16.4062" r="16.4062" fill="#111111"/>
<path fill-rule="evenodd" clip-rule="evenodd" d="M24.2019 8.73397C23.49 8.02208 22.3358 8.02208 21.6239 8.73397L16.468 13.8899L11.312 8.73392C10.6001 8.02203 9.44593 8.02203 8.73404 8.73392C8.02214 9.44581 8.02214 10.6 8.73404 11.3119L13.89 16.4679L8.73397 21.6239C8.02207 22.3358 8.02207 23.49 8.73396 24.2019C9.44586 24.9138 10.6001 24.9138 11.312 24.2019L16.468 19.0459L21.624 24.2019C22.3359 24.9138 23.4901 24.9138 24.202 24.2019C24.9139 23.49 24.9139 22.3358 24.202 21.6239L19.046 16.4679L24.2019 11.312C24.9138 10.6001 24.9138 9.44586 24.2019 8.73397Z" fill="#E06E6E"/>
</svg>
