<svg width="13" height="24" viewBox="0 0 13 24" fill="none" xmlns="http://www.w3.org/2000/svg">
<path fill-rule="evenodd" clip-rule="evenodd" d="M0.931975 3.86739C0.341312 4.3614 0 5.09181 0 5.86183V11.5604C0 12.9964 1.16408 14.1605 2.60005 14.1605H3.24981C3.6088 14.1605 3.89982 13.8695 3.89982 13.5105V8.9603C3.89982 8.60131 4.19084 8.31029 4.54983 8.31029H8.44981C8.8088 8.31029 9.09982 8.60131 9.09982 8.9603V13.5105C9.09982 13.8695 9.39084 14.1605 9.74983 14.1605H10.3999C11.8359 14.1605 13 12.9964 13 11.5604V5.86183C13 5.09181 12.6587 4.3614 12.068 3.86739L8.16808 0.605612C7.20261 -0.201871 5.79739 -0.201871 4.83192 0.605613L0.931975 3.86739Z" fill="#111011"/>
<path d="M7.15014 13.51C7.15014 13.151 6.85911 12.86 6.50012 12.86C6.14113 12.86 5.85011 13.151 5.85011 13.51H7.15014ZM6.04049 23.0696C6.29434 23.3235 6.7059 23.3235 6.95975 23.0696L11.0964 18.933C11.3503 18.6791 11.3503 18.2676 11.0964 18.0137C10.8426 17.7599 10.431 17.7599 10.1772 18.0137L6.50012 21.6908L2.82309 18.0137C2.56925 17.7599 2.15768 17.7599 1.90383 18.0137C1.64999 18.2676 1.64999 18.6791 1.90383 18.933L6.04049 23.0696ZM5.85011 13.51L5.85011 22.61H7.15014L7.15014 13.51H5.85011Z" fill="#111011"/>
</svg>
