<svg width="13" height="24" viewBox="0 0 13 24" fill="none" xmlns="http://www.w3.org/2000/svg">
<path fill-rule="evenodd" clip-rule="evenodd" d="M0.931957 3.86742C0.341305 4.36142 0 5.09181 0 5.86182V11.5605C0 12.9964 1.16406 14.1605 2.6 14.1605H3.24988C3.60887 14.1605 3.89988 13.8695 3.89988 13.5105V8.96045C3.89988 8.60147 4.1909 8.31046 4.54988 8.31046H8.44988C8.80887 8.31046 9.09988 8.60147 9.09988 8.96045V13.5105C9.09988 13.8695 9.3909 14.1605 9.74988 14.1605H10.4C11.8359 14.1605 13 12.9964 13 11.5605V5.86182C13 5.09181 12.6587 4.36142 12.068 3.86742L8.16804 0.6056C7.20259 -0.201867 5.79741 -0.201867 4.83196 0.6056L0.931957 3.86742Z" fill="#111011"/>
<path d="M7.14988 22.6104C7.14988 22.9693 6.85886 23.2604 6.49988 23.2604C6.14089 23.2604 5.84988 22.9693 5.84988 22.6104H7.14988ZM6.04026 13.0507C6.2941 12.7969 6.70566 12.7969 6.9595 13.0507L11.0961 17.1873C11.3499 17.4411 11.3499 17.8527 11.0961 18.1065C10.8422 18.3604 10.4307 18.3604 10.1768 18.1065L6.49988 14.4296L2.82292 18.1065C2.56908 18.3604 2.15752 18.3604 1.90368 18.1065C1.64984 17.8527 1.64984 17.4411 1.90368 17.1873L6.04026 13.0507ZM5.84988 22.6104L5.84988 13.5104H7.14988L7.14988 22.6104H5.84988Z" fill="#111011"/>
</svg>
