<svg width="33" height="33" viewBox="0 0 33 33" fill="none" xmlns="http://www.w3.org/2000/svg">
<circle cx="16.7694" cy="16.7691" r="16.1538" fill="#111111"/>
<path fill-rule="evenodd" clip-rule="evenodd" d="M16.7692 6C15.778 6 14.9744 6.80359 14.9744 7.79487V14.9741H7.79487C6.80359 14.9741 6 15.7777 6 16.769C6 17.7603 6.80359 18.5639 7.79487 18.5639H14.9744V25.7436C14.9744 26.7349 15.778 27.5385 16.7692 27.5385C17.7605 27.5385 18.5641 26.7349 18.5641 25.7436V18.5639H25.7436C26.7349 18.5639 27.5385 17.7603 27.5385 16.769C27.5385 15.7777 26.7349 14.9741 25.7436 14.9741H18.5641V7.79487C18.5641 6.80359 17.7605 6 16.7692 6Z" fill="#8764F5"/>
</svg>
