<svg width="16" height="16" viewBox="0 0 16 16" fill="none" xmlns="http://www.w3.org/2000/svg">
<path fill-rule="evenodd" clip-rule="evenodd" d="M10.7683 10.8275C8.60874 12.805 5.25496 12.6574 3.27743 10.4978C1.29991 8.33827 1.44748 4.98449 3.60705 3.00696C5.76662 1.02944 9.1204 1.17701 11.0979 3.33658C13.0755 5.49615 12.9279 8.84993 10.7683 10.8275ZM11.2176 11.7624C8.64771 13.9033 4.8225 13.6659 2.53992 11.1732C0.189419 8.60629 0.364829 4.61996 2.93171 2.26945C5.4986 -0.0810505 9.48493 0.0943594 11.8354 2.66124C14.0262 5.05365 14.0227 8.67909 11.9339 11.0639L15.2025 14.6334L14.465 15.3088L11.2176 11.7624Z" fill="#F9F9F9"/>
</svg>
