<svg width="29" height="30" viewBox="0 0 29 30" fill="none" xmlns="http://www.w3.org/2000/svg">
<g filter="url(#filter0_d_223_3237)">
<path fill-rule="evenodd" clip-rule="evenodd" d="M8.93198 10.8674C8.34131 11.3614 8 12.0918 8 12.8618V18.5604C8 19.9964 9.16408 21.1605 10.6001 21.1605H11.2498C11.6088 21.1605 11.8998 20.8695 11.8998 20.5105V15.9603C11.8998 15.6013 12.1908 15.3103 12.5498 15.3103H16.4498C16.8088 15.3103 17.0998 15.6013 17.0998 15.9603V20.5105C17.0998 20.8695 17.3908 21.1605 17.7498 21.1605H18.3999C19.8359 21.1605 21 19.9964 21 18.5604V12.8618C21 12.0918 20.6587 11.3614 20.068 10.8674L16.1681 7.60561C15.2026 6.79813 13.7974 6.79813 12.8319 7.60561L8.93198 10.8674Z" fill="#111011"/>
</g>
<defs>
<filter id="filter0_d_223_3237" x="0.737782" y="0.634353" width="27.5244" height="28.6848" filterUnits="userSpaceOnUse" color-interpolation-filters="sRGB">
<feFlood flood-opacity="0" result="BackgroundImageFix"/>
<feColorMatrix in="SourceAlpha" type="matrix" values="0 0 0 0 0 0 0 0 0 0 0 0 0 0 0 0 0 0 127 0" result="hardAlpha"/>
<feOffset dy="0.89657"/>
<feGaussianBlur stdDeviation="3.63111"/>
<feComposite in2="hardAlpha" operator="out"/>
<feColorMatrix type="matrix" values="0 0 0 0 0 0 0 0 0 0 0 0 0 0 0 0 0 0 0.25 0"/>
<feBlend mode="normal" in2="BackgroundImageFix" result="effect1_dropShadow_223_3237"/>
<feBlend mode="normal" in="SourceGraphic" in2="effect1_dropShadow_223_3237" result="shape"/>
</filter>
</defs>
</svg>
