<svg width="36" height="23" viewBox="0 0 36 23" fill="none" xmlns="http://www.w3.org/2000/svg">
<path fill-rule="evenodd" clip-rule="evenodd" d="M4.83873 0.758057C4.09047 0.758057 3.48389 1.36464 3.48389 2.1129V8.69354C3.48389 9.4418 4.09047 10.0484 4.83873 10.0484H11.4194C12.1676 10.0484 12.7742 9.4418 12.7742 8.69354V2.1129C12.7742 1.36464 12.1676 0.758057 11.4194 0.758057H4.83873ZM4.83873 12.9517C4.09047 12.9517 3.48389 13.5582 3.48389 14.3065V20.8871C3.48389 21.6354 4.09047 22.242 4.83873 22.242H11.4194C12.1676 22.242 12.7742 21.6354 12.7742 20.8871V14.3065C12.7742 13.5582 12.1676 12.9517 11.4194 12.9517H4.83873ZM23.2258 14.3065C23.2258 13.5582 23.8324 12.9517 24.5807 12.9517H31.1613C31.9096 12.9517 32.5162 13.5582 32.5162 14.3065V20.8871C32.5162 21.6354 31.9096 22.242 31.1613 22.242H24.5807C23.8324 22.242 23.2258 21.6354 23.2258 20.8871V14.3065ZM24.5807 0.758057C23.8324 0.758057 23.2258 1.36464 23.2258 2.1129V8.69354C23.2258 9.4418 23.8324 10.0484 24.5807 10.0484H31.1613C31.9096 10.0484 32.5162 9.4418 32.5162 8.69354V2.1129C32.5162 1.36464 31.9096 0.758057 31.1613 0.758057H24.5807ZM13.9355 5.40323C13.9355 4.76187 14.4554 4.24194 15.0968 4.24194C15.7381 4.24194 16.2581 4.76187 16.2581 5.40323C16.2581 6.0446 15.7381 6.56452 15.0968 6.56452C14.4554 6.56452 13.9355 6.0446 13.9355 5.40323ZM20.9032 4.24194C20.2619 4.24194 19.7419 4.76187 19.7419 5.40323C19.7419 6.0446 20.2619 6.56452 20.9032 6.56452C21.5446 6.56452 22.0645 6.0446 22.0645 5.40323C22.0645 4.76187 21.5446 4.24194 20.9032 4.24194ZM19.7419 17.5968C19.7419 16.9555 20.2619 16.4355 20.9032 16.4355C21.5446 16.4355 22.0645 16.9555 22.0645 17.5968C22.0645 18.2382 21.5446 18.7581 20.9032 18.7581C20.2619 18.7581 19.7419 18.2382 19.7419 17.5968ZM15.0968 16.4355C14.4554 16.4355 13.9355 16.9555 13.9355 17.5968C13.9355 18.2382 14.4554 18.7581 15.0968 18.7581C15.7381 18.7581 16.2581 18.2382 16.2581 17.5968C16.2581 16.9555 15.7381 16.4355 15.0968 16.4355ZM0 17.5968C0 16.9555 0.519927 16.4355 1.16129 16.4355C1.80265 16.4355 2.32258 16.9555 2.32258 17.5968C2.32258 18.2382 1.80265 18.7581 1.16129 18.7581C0.519927 18.7581 0 18.2382 0 17.5968ZM1.16129 4.24194C0.519927 4.24194 0 4.76187 0 5.40323C0 6.0446 0.519927 6.56452 1.16129 6.56452C1.80265 6.56452 2.32258 6.0446 2.32258 5.40323C2.32258 4.76187 1.80265 4.24194 1.16129 4.24194ZM33.6774 17.5968C33.6774 16.9555 34.1974 16.4355 34.8387 16.4355C35.4801 16.4355 36 16.9555 36 17.5968C36 18.2382 35.4801 18.7581 34.8387 18.7581C34.1974 18.7581 33.6774 18.2382 33.6774 17.5968ZM34.8387 4.24194C34.1974 4.24194 33.6774 4.76187 33.6774 5.40323C33.6774 6.0446 34.1974 6.56452 34.8387 6.56452C35.4801 6.56452 36 6.0446 36 5.40323C36 4.76187 35.4801 4.24194 34.8387 4.24194Z" fill="#111111"/>
</svg>
